<svg width="194" height="16" viewBox="0 0 194 16" xmlns="http://www.w3.org/2000/svg"><g fill="#FFF"><path d="M73.681 15.645c2.93 0 4.882-1.899 4.882-5.105v-8.2h-3.206v8.07c0 1.492-.534 2.23-1.659 2.23-1.086 0-1.547-.755-1.547-2.23V2.34h-3.225v8.199c0 3.278 1.788 5.105 4.755 5.105zm9.05-10.375h.847c1.42 0 2.1.442 2.1 1.529 0 1.18-.773 1.585-2.357 1.585h-.59V5.27zm-.037 5.952h.921c1.364 0 2.396-.092 3.225-.59 1.308-.791 2.082-2.193 2.082-3.887 0-1.641-.607-2.874-1.769-3.685-.884-.627-1.935-.719-3.317-.719h-4.347v13.1h3.205v-4.219zm23.955-3.077l4.882 7.296h2.819V2.34h-3.204v7.28l-4.81-7.278h-2.893v13.1h3.206V8.145zm-45.24-2.8c1.842 0 3.372 1.528 3.372 3.444 0 2.138-1.53 3.65-3.41 3.65-1.805 0-3.445-1.585-3.445-3.65 0-1.915 1.529-3.445 3.482-3.445zm-.037 10.336a6.643 6.643 0 004.827-2.046c1.235-1.271 1.898-2.948 1.898-4.827 0-1.787-.7-3.464-2.027-4.772a6.623 6.623 0 00-4.68-1.935c-1.86 0-3.482.645-4.772 1.916a6.56 6.56 0 00-1.99 4.736c0 1.935.626 3.556 1.861 4.864 1.29 1.363 2.948 2.065 4.883 2.065zM96.126 5.345c1.843 0 3.373 1.528 3.373 3.444 0 2.138-1.53 3.65-3.41 3.65-1.805 0-3.445-1.585-3.445-3.65 0-1.915 1.53-3.445 3.481-3.445zM96.09 15.68a6.639 6.639 0 004.826-2.046c1.236-1.271 1.898-2.948 1.898-4.827 0-1.787-.7-3.464-2.026-4.772a6.623 6.623 0 00-4.68-1.935c-1.862 0-3.482.645-4.773 1.916a6.561 6.561 0 00-1.99 4.736c0 1.935.627 3.556 1.861 4.864 1.29 1.363 2.948 2.065 4.884 2.065zm-63.777-2.064c1.29 1.363 2.93 2.082 4.865 2.082a6.79 6.79 0 005.583-2.93c.756-1.104 1.124-2.357 1.124-3.832 0-.276-.019-.571-.037-.866h-7.463v2.617h3.741c-.645 1.142-1.732 1.77-2.948 1.77-1.806 0-3.428-1.604-3.428-3.686 0-1.88 1.511-3.446 3.428-3.446 1.031 0 1.879.424 2.69 1.271h3.649c-1.052-2.801-3.502-4.515-6.303-4.515-1.86 0-3.483.663-4.772 1.935a6.562 6.562 0 00-1.99 4.736c0 1.934.626 3.556 1.86 4.864h.001zm15.59-8.347h.884c1.418 0 2.1.442 2.1 1.529 0 1.18-.774 1.585-2.359 1.585h-.626V5.27zm0 5.952l2.505 4.219h3.962l-3.206-4.496c1.86-.516 2.966-2.1 2.966-4.22 0-1.621-.608-2.855-1.77-3.666-.884-.626-1.934-.718-3.315-.718h-4.35v13.1h3.207v-4.219zm89.821-.993c-.13-1.92-1.23-3.69-3.41-3.69-1.883 0-3.336 1.584-3.503 3.69h6.914zm-3.186 4.565c1.472 0 2.478-.651 3.261-1.49l.633.558c-.969 1.044-2.105 1.79-3.932 1.79-2.497 0-4.659-1.995-4.659-4.958v-.037c0-2.758 1.94-4.957 4.51-4.957 2.665 0 4.361 2.161 4.361 4.975v.037c0 .131 0 .187-.019.336h-7.883c.168 2.367 1.864 3.746 3.728 3.746zm10.474-8.013c-2.2 0-4.118 1.658-4.118 4.753v3.894h-.914V5.923h.914v2.703c.745-1.697 2.329-2.926 4.21-2.851V6.78h-.092zm4.885 8.87c-2.74 0-4.845-2.274-4.845-4.938v-.038c0-2.663 2.123-4.975 4.845-4.975 1.789 0 2.907.82 3.801 1.752l-.652.672c-.82-.84-1.752-1.566-3.168-1.566-2.161 0-3.839 1.807-3.839 4.08v.037c0 2.293 1.733 4.12 3.914 4.12 1.342 0 2.385-.69 3.186-1.584l.635.56c-.97 1.097-2.125 1.88-3.877 1.88zm12.275-.223V9.781c0-1.957-1.1-3.242-3.02-3.242-1.863 0-3.297 1.415-3.297 3.39v5.498h-.914V2.307h.914v5.387c.633-1.119 1.695-1.994 3.428-1.994 2.404 0 3.802 1.64 3.802 3.914v5.814h-.913zm9.337-4.64a12.604 12.604 0 00-3.224-.429c-2.013 0-3.131.894-3.131 2.217v.038c0 1.379 1.305 2.18 2.757 2.18 1.94 0 3.598-1.192 3.598-2.925v-1.082zm-.019 4.64v-1.584c-.652.913-1.826 1.807-3.634 1.807-1.77 0-3.671-1.006-3.671-2.981v-.037c0-1.976 1.696-3.094 4.156-3.094 1.323 0 2.236.168 3.15.41v-.41c0-1.92-1.175-2.908-3.132-2.908-1.155 0-2.105.318-2.981.766l-.336-.802c1.044-.485 2.069-.82 3.373-.82 2.442 0 3.97 1.267 3.97 3.727v5.926h-.895zm9.53 0V9.781c0-1.957-1.1-3.242-3.02-3.242-1.863 0-3.298 1.415-3.298 3.39v5.498h-.913V5.923h.914v1.77c.633-1.118 1.695-1.993 3.429-1.993 2.403 0 3.8 1.64 3.8 3.913v5.815h-.912zm5.63.168c-1.472 0-2.665-.802-2.665-2.61V6.764h-1.379v-.839h1.38V2.887h.912v3.036h3.336v.839h-3.336v6.13c0 1.36.802 1.845 1.901 1.845.466 0 .857-.092 1.398-.335v.857c-.485.224-.95.336-1.547.336zm-57.636-.152l-1.5-13.108-.922.001-4.183 8.62-4.184-8.62-.923-.001-1.5 13.108.923.001 1.309-11.436 4.374 9.05 4.375-9.05 1.309 11.436h.922zm62.143-.294h-.02l-.485-.727v1.005h-.143V14.17h.15l.491.747.49-.747h.147v1.257h-.143v-1.004l-.486.727zm-1.347.278h-.143v-1.12h-.412v-.138h.967v.139h-.412v1.118z"/><path opacity=".8" d="M13.011 15.407H8.618L4.97 4.424h4.393l3.647 10.983"/><path d="M6.421 15.407H2.028L4.97 4.424h4.393L6.421 15.407"/><path opacity=".8" d="M19.601 15.407h-4.393l-3.059-13.18h4.394l3.058 13.18"/><path d="M13.011 15.407H8.618l3.531-13.18h4.394l-3.532 13.18m6.59 0h-4.393L19.328.031h4.393l-4.12 15.376"/></g></svg>