<svg width="47" height="64" xmlns="http://www.w3.org/2000/svg" xmlns:xlink="http://www.w3.org/1999/xlink"><defs><path id="a" d="M2.318 10.38h17.864L2.318 30.866z"/></defs><g fill="none" fill-rule="evenodd"><path fill="#626262" d="M24.636 3.14h14.59v5.054h-14.59zm.137 46.846h14.59v7.238h-14.59z"/><path fill="#979797" d="M19.318 10.38h25.364v38.24H19.318z"/><path fill="#444" d="M19.864 10.79h24.273v37.147H19.864z"/><g transform="translate(17)"><use fill-opacity=".5" fill="#666" xlink:href="#a"/><use xlink:href="#a"/></g><path d="M17 2.732C17 1.222 18.22 0 19.73 0h24.54C45.78 0 47 1.222 47 2.732v53.536C47 57.778 45.78 59 44.27 59H19.73A2.729 2.729 0 0117 56.268V2.732zm2.318 7.648h25.364v38.24H19.318V10.38zM32 56.542a2.866 2.866 0 002.864-2.868A2.866 2.866 0 0032 50.806a2.866 2.866 0 00-2.864 2.868A2.866 2.866 0 0032 56.542zM28.318 6.146a.682.682 0 100-1.365.682.682 0 000 1.365zm2.046-.683c0-.377.305-.683.682-.683h4.635a.684.684 0 01.001 1.366h-4.634a.683.683 0 01-.682-.683z" fill="#FFF"/><g transform="translate(0 39)"><rect fill="#417505" width="25" height="25" rx="2"/><path d="M7.15 17.67c.3.358.66.687 1.077.985.418.3.837.538 1.255.718.478.18.94.328 1.39.448.448.12.97.18 1.568.18.538 0 1.12-.075 1.748-.224a5.577 5.577 0 001.66-.672 6.603 6.603 0 001.523-1.03 9.84 9.84 0 001.166-1.3c.18-.3.358-.614.538-.942.18-.33.3-.643.358-.942.12-.418.194-.806.224-1.165.03-.358.075-.747.135-1.165a.723.723 0 01-.044-.448.727.727 0 00-.045-.45l-8.156-.088-.09 2.958 4.213-.09c-.24.36-.463.643-.672.852a9.24 9.24 0 01-.762.672c-.24.12-.523.24-.852.36-.327.118-.64.148-.94.088-.538.06-1.016-.03-1.434-.27a14.678 14.678 0 01-1.255-.805c-.298-.42-.567-.868-.806-1.346-.24-.478-.328-1.016-.27-1.614-.058-.478.03-.956.27-1.434a6.68 6.68 0 01.717-1.165c.42-.417.838-.716 1.256-.896.42-.18.927-.298 1.524-.358.24.06.493.104.762.134.27.03.493.135.673.314.298.06.552.194.76.403.21.21.435.404.674.583l3.943.09c-.24-.837-.598-1.554-1.076-2.152a10.338 10.338 0 00-1.613-1.613 11.868 11.868 0 00-1.972-.94 5.158 5.158 0 00-2.24-.315c-.48-.06-.958-.03-1.436.09s-.926.24-1.344.358c-.478.24-.912.478-1.3.717-.39.24-.762.568-1.12.986-.36.3-.673.66-.942 1.077-.27.418-.493.837-.672 1.255-.18.478-.314.94-.404 1.39-.09.448-.134.94-.134 1.478 0 .48.045.987.134 1.524.09.538.225.986.404 1.345.18.537.388.985.627 1.344.24.358.538.747.897 1.165l.09-.09z" fill="#FFF"/></g></g></svg>